<?xml version="1.0" encoding="UTF-8"?>
<svg xmlns="http://www.w3.org/2000/svg" width="512" height="512" viewBox="0 0 512 512">
<defs>
  <linearGradient id="armor" x1="0" y1="0" x2="1" y2="1"><stop offset="0" stop-color="#f8ffff"/><stop offset=".18" stop-color="#7ddfff"/><stop offset=".48" stop-color="#214f83"/><stop offset=".8" stop-color="#0b1830"/><stop offset="1" stop-color="#02050d"/></linearGradient>
  <linearGradient id="armor2" x1="0" y1="0" x2="0" y2="1"><stop offset="0" stop-color="#bdf6ff"/><stop offset=".35" stop-color="#3aa7df"/><stop offset="1" stop-color="#071126"/></linearGradient>
  <linearGradient id="visor" x1="0" y1="0" x2="1" y2="1"><stop stop-color="#efffff"/><stop offset=".12" stop-color="#4de9ff"/><stop offset=".48" stop-color="#124b77"/><stop offset="1" stop-color="#020713"/></linearGradient>
  <radialGradient id="core"><stop stop-color="#fff"/><stop offset=".18" stop-color="#bffcff"/><stop offset=".48" stop-color="#24dfff"/><stop offset="1" stop-color="#0074b8"/></radialGradient>
  <filter id="glow"><feGaussianBlur stdDeviation="8" result="b"/><feMerge><feMergeNode in="b"/><feMergeNode in="SourceGraphic"/></feMerge></filter>
  <filter id="soft"><feGaussianBlur stdDeviation="18"/></filter>
</defs>
<g opacity=".32" filter="url(#soft)"><ellipse cx="256" cy="278" rx="145" ry="190" fill="#19dfff"/></g>
<g stroke="#6eeeff" stroke-linejoin="round" stroke-linecap="round">
  <!-- backpack / reactor -->
  <path d="M166 180 Q135 218 148 300 L178 323 190 206Z" fill="#071426" stroke-width="5"/>
  <path d="M346 180 Q377 218 364 300 L334 323 322 206Z" fill="#071426" stroke-width="5"/>
  <circle cx="256" cy="279" r="37" fill="#07182b" stroke-width="7"/>
  <circle cx="256" cy="279" r="22" fill="url(#core)" filter="url(#glow)" stroke="#dfffff" stroke-width="3"/>
  <path d="M225 279h62M256 248v62" stroke="#fff" opacity=".55" stroke-width="2"/>
  <!-- legs -->
  <path d="M197 326 L235 327 225 422 193 450 166 442 188 410Z" fill="url(#armor)" stroke-width="7"/>
  <path d="M277 327 L315 326 324 410 346 442 319 450 287 422Z" fill="url(#armor)" stroke-width="7"/>
  <path d="M167 438 Q195 430 223 449 L210 470 158 467Z" fill="#061020" stroke-width="6"/>
  <path d="M345 438 Q317 430 289 449 L302 470 354 467Z" fill="#061020" stroke-width="6"/>
  <path d="M198 347 L224 347M288 347 L314 347" stroke="#fff" opacity=".35" stroke-width="4"/>
  <!-- torso -->
  <path d="M193 181 Q256 158 319 181 L339 292 Q328 337 256 354 Q184 337 173 292Z" fill="url(#armor)" stroke-width="8"/>
  <path d="M211 205 Q256 188 301 205 L310 273 Q256 296 202 273Z" fill="#061226" stroke="#79f2ff" stroke-width="4"/>
  <path d="M215 214 L297 214" stroke="#fff" opacity=".65" stroke-width="3"/>
  <path d="M222 230 L290 230M229 247 L283 247" opacity=".5" stroke-width="2"/>
  <circle cx="256" cy="267" r="13" fill="url(#core)" filter="url(#glow)" stroke="#fff" stroke-width="2"/>
  <!-- shoulders -->
  <path d="M174 194 Q139 194 127 222 L144 255 183 243Z" fill="url(#armor2)" stroke-width="7"/>
  <path d="M338 194 Q373 194 385 222 L368 255 329 243Z" fill="url(#armor2)" stroke-width="7"/>
  <!-- arms -->
  <path d="M137 235 L109 303 126 353 153 347 149 302 177 253Z" fill="url(#armor)" stroke-width="7"/>
  <path d="M375 235 L403 303 386 353 359 347 363 302 335 253Z" fill="url(#armor)" stroke-width="7"/>
  <circle cx="126" cy="349" r="15" fill="#071529" stroke-width="5"/>
  <circle cx="386" cy="349" r="15" fill="#071529" stroke-width="5"/>
  <circle cx="126" cy="349" r="6" fill="url(#core)" filter="url(#glow)"/>
  <circle cx="386" cy="349" r="6" fill="url(#core)" filter="url(#glow)"/>
  <!-- neck -->
  <path d="M217 173 L224 142 288 142 295 173 276 192 236 192Z" fill="#0a172a" stroke-width="7"/>
  <!-- helmet -->
  <path d="M184 147 Q184 61 256 44 Q328 61 328 147 L302 188 Q256 211 210 188Z" fill="url(#armor)" stroke-width="8"/>
  <path d="M190 129 Q201 73 256 61 Q311 73 322 129 L304 161 Q256 181 208 161Z" fill="#08152a" stroke="#91f6ff" stroke-width="5"/>
  <!-- visor -->
  <path d="M203 112 Q256 82 309 112 L296 148 Q256 164 216 148Z" fill="url(#visor)" stroke="#dfffff" stroke-width="3"/>
  <path d="M216 111 Q247 96 278 101 L297 111" fill="none" stroke="#fff" opacity=".75" stroke-width="5"/>
  <path d="M220 133 L292 133" stroke="#61ecff" opacity=".55" stroke-width="3"/>
  <circle cx="225" cy="144" r="5" fill="#dfffff" filter="url(#glow)"/>
  <circle cx="287" cy="144" r="5" fill="#dfffff" filter="url(#glow)"/>
  <!-- helmet fins -->
  <path d="M188 96 L157 73 179 127Z" fill="#17365b" stroke-width="5"/>
  <path d="M324 96 L355 73 333 127Z" fill="#17365b" stroke-width="5"/>
  <!-- armor seams -->
  <g fill="none" stroke="#bffaff" opacity=".55" stroke-width="2">
    <path d="M195 188 L180 292M317 188 L332 292"/>
    <path d="M205 315 Q256 337 307 315"/>
    <path d="M183 270 L148 283M329 270 L364 283"/>
  </g>
</g>
<!-- engine plume -->
<g filter="url(#glow)" opacity=".95">
 <path d="M211 462 Q256 490 301 462 Q285 515 256 505 Q227 515 211 462Z" fill="#17dfff"/>
 <path d="M228 465 Q256 482 284 465 Q272 496 256 492 Q240 496 228 465Z" fill="#fff"/>
</g>
</svg>